<svg width="63" height="62" viewBox="0 0 63 62" fill="none" xmlns="http://www.w3.org/2000/svg">
<path d="M60.0469 23.5831V24.8135C60.0469 28.6819 59.06 32.4902 57.1744 35.8981C55.2888 39.3061 52.5632 42.2077 49.2409 44.3438L38.3906 51.3197L34.4531 53.8509L31.5 55.7502L30.5156 55.1243L27.5625 53.2453L26.1475 52.3458L15.5371 45.598L14.143 44.7117L13.8588 44.5301C10.5087 42.3994 7.75774 39.4926 5.85386 36.072C3.94998 32.6514 2.9531 28.8245 2.95313 24.9365V22.1736C2.9532 19.1383 3.84488 16.166 5.52357 13.6054C6.84733 11.5853 8.67475 9.92223 10.8366 8.77006C12.9984 7.61789 15.4248 7.0139 17.891 7.01404H18.2638C20.5397 7.01414 22.7843 7.52863 24.8198 8.51677C26.8554 9.50491 28.626 10.9396 29.9914 12.7071L31.5 14.6589L33.0086 12.7071C34.4598 10.8285 36.3674 9.32764 38.5612 8.33846C40.755 7.34928 43.1669 6.90248 45.5818 7.0379C47.9966 7.17332 50.3395 7.88674 52.4014 9.11457C54.4632 10.3424 56.1801 12.0464 57.3989 14.0748C59.1324 16.9611 60.0461 20.2421 60.0469 23.5831V23.5831Z" fill="#5D62B5"/>
<path d="M34.4531 45.7163V53.839V53.8509L38.3906 51.3197V42.73L34.4531 45.7163Z" fill="#EA9D2D"/>
<path d="M44.2968 20.3926V22.7816C44.2969 23.0954 44.2333 23.4061 44.1097 23.696C43.9861 23.9859 43.8048 24.2493 43.5763 24.4711C43.3477 24.693 43.0764 24.869 42.7778 24.989C42.4791 25.109 42.1591 25.1707 41.8359 25.1706H39.375V30.9043L39.0147 31.8614L39.6383 32.8155L40.1182 36.3083C40.2362 37.1632 40.2733 38.0269 40.2289 38.8884C40.145 40.526 39.4977 42.089 38.3906 43.3273L34.4531 46.1941V53.8509L31.5 55.7502L30.5156 55.1243V48.1053L26.1474 52.3458L15.5371 45.598L23.625 34.7268L25.5937 31.8599L28.1715 29.3574L29.475 29.0477L29.5312 28.0375V25.3761C29.5314 22.7967 30.587 20.3231 32.4659 18.4993C33.1084 17.8762 33.9793 17.5261 34.8874 17.5258H37.0186C37.8974 17.5259 38.7401 17.8649 39.3614 18.4682L41.3437 20.3926H44.2968Z" fill="#FBB540"/>
<path d="M35.4375 20.3926H37.4062V22.3038H35.4375V20.3926Z" fill="#985713"/>
<path d="M39.6385 32.8155H38.2185C36.2373 32.8129 34.2836 32.3653 32.5103 31.5075L28.1717 29.3574L29.5314 28.0374V27.8857L33.3987 29.8017C34.8961 30.5255 36.5458 30.9029 38.2185 30.9043H39.3751L39.6385 32.8155Z" fill="#5D62B5"/>
<path d="M31.745 28.9931H29.5312V27.0818H31.745C31.941 27.0816 32.129 27.0059 32.2676 26.8713C32.4062 26.7367 32.4842 26.5543 32.4844 26.3639V23.2594H34.4531V26.3639C34.4523 27.061 34.1667 27.7292 33.659 28.2221C33.1513 28.715 32.463 28.9922 31.745 28.9931V28.9931Z" fill="#985713"/>
<path d="M31.5001 34.7268V36.638C31.5 37.3982 31.1888 38.1273 30.635 38.6649C30.0812 39.2025 29.3302 39.5046 28.547 39.5048V42.9808C28.5474 43.83 28.2883 44.6601 27.8026 45.3663L26.5783 47.1497V50.0165L26.9363 50.7117L27.2341 51.2911L27.5626 51.9277V53.2453L26.1476 52.3458L15.5373 45.598L14.1432 44.7117L19.6876 36.638V33.6469C19.6876 33.574 19.6889 33.5 19.6913 33.4271C19.7537 32.0296 20.2999 30.6933 21.2417 29.6345L22.6408 28.0375L23.6251 31.8599H25.9822C26.4684 31.8599 26.9469 31.9765 27.3755 32.1992C27.804 32.422 28.1693 32.7441 28.4387 33.1369C28.775 33.6259 29.2303 34.0268 29.7643 34.3041C30.2983 34.5815 30.8945 34.7266 31.5001 34.7268Z" fill="#E4E4E2"/>
<path d="M24.6094 34.7267H26.5781V36.6379H24.6094V34.7267Z" fill="#29C3BE"/>
</svg>
