<svg width="63" height="62" viewBox="0 0 63 62" fill="none" xmlns="http://www.w3.org/2000/svg">
<path d="M58.3836 5.42126H4.61638C3.51657 5.42126 2.625 6.29053 2.625 7.36282V44.2524C2.625 45.3247 3.51657 46.194 4.61638 46.194H58.3836C59.4834 46.194 60.375 45.3247 60.375 44.2524V7.36282C60.375 6.29053 59.4834 5.42126 58.3836 5.42126Z" fill="#5D62B5"/>
<path d="M27.5625 23.8965L21.6562 29.6302C21.4803 29.5454 21.3097 29.4534 21.1444 29.3542C20.1658 28.7776 19.3449 27.9805 18.7511 27.0305C18.1574 26.0804 17.8083 25.0054 17.7335 23.8965C17.7237 23.7472 17.7188 23.5967 17.7188 23.445V21.0297H23.625L27.5625 23.8965Z" fill="#F3AF3E"/>
<path d="M25.5937 26.7633L23.1328 28.1967L21.1443 29.3542C20.1658 28.7776 19.3449 27.9805 18.7511 27.0304C18.1574 26.0804 17.8083 25.0054 17.7335 23.8965H22.7304L25.1089 26.2783L25.5937 26.7633Z" fill="#5B3726"/>
<path d="M45.2812 21.0297V23.445C45.2812 23.5967 45.2763 23.7472 45.2665 23.8965C45.1848 25.1014 44.7797 26.2645 44.0916 27.2704C43.4034 28.2763 42.4561 29.0898 41.3438 29.6302L35.4375 23.8965L39.375 21.0297H45.2812Z" fill="#F3AF3E"/>
<path d="M45.2665 23.8965C45.1968 24.93 44.8889 25.9351 44.3654 26.8376C43.8419 27.7401 43.1162 28.5168 42.242 29.1105L39.375 27.7189L37.4062 26.7633L37.8911 26.2783L40.2695 23.8965H45.2665Z" fill="#5B3726"/>
<path d="M42.3281 31.5414V43.9643H20.6719V31.5414C20.6719 28.7535 21.8127 26.0798 23.8434 24.1085C25.874 22.1371 28.6282 21.0297 31.5 21.0297C34.3718 21.0297 37.126 22.1371 39.1566 24.1085C41.1873 26.0798 42.3281 28.7535 42.3281 31.5414V31.5414Z" fill="#F3AF3E"/>
<path d="M26.2686 27.7826L29.2227 26.8277L29.8449 28.6415L26.8908 29.5965L26.2686 27.7826Z" fill="#D18D28"/>
<path d="M33.1573 28.6096L33.7795 26.7958L36.7336 27.7507L36.1114 29.5645L33.1573 28.6096Z" fill="#D18D28"/>
<path d="M37.6305 35.1619L36.75 33.4525C35.9699 33.8287 33.3195 35.9154 32.4849 35.6734V33.4525H30.5162V35.6743C29.6815 35.916 27.0301 33.8286 26.25 33.4525L25.3694 35.1619C26.0452 35.4882 28.5372 37.6862 29.2913 37.7184C30.0453 37.7507 30.7979 37.6291 31.5006 37.3617C32.2033 37.629 32.9559 37.7505 33.7099 37.7182C34.4639 37.6858 36.9548 35.4883 37.6305 35.1619Z" fill="#744630"/>
<path d="M23.625 41.0974C23.6256 41.4329 23.5348 41.7626 23.3617 42.053H20.6719V38.2306C21.4551 38.2306 22.2062 38.5326 22.76 39.0703C23.3139 39.6079 23.625 40.3371 23.625 41.0974Z" fill="#D18D28"/>
<path d="M42.3281 38.2306V42.053H39.6383C39.4652 41.7626 39.3744 41.4329 39.375 41.0974C39.375 40.3371 39.6861 39.6079 40.24 39.0703C40.7938 38.5326 41.5449 38.2306 42.3281 38.2306Z" fill="#D18D28"/>
<path d="M20.6719 43.0086H18.7031C18.181 43.0086 17.6802 42.8073 17.311 42.4489C16.9418 42.0904 16.7344 41.6043 16.7344 41.0974C16.7344 40.3371 17.0455 39.6079 17.5993 39.0703C18.1531 38.5326 18.9043 38.2306 19.6875 38.2306C20.4707 38.2306 21.2219 38.5326 21.7757 39.0703C22.3295 39.6079 22.6406 40.3371 22.6406 41.0974C22.6406 41.6043 22.4332 42.0904 22.064 42.4489C21.6948 42.8073 21.194 43.0086 20.6719 43.0086Z" fill="#F3AF3E"/>
<path d="M44.2969 43.0086H42.3281C41.806 43.0086 41.3052 42.8073 40.936 42.4489C40.5668 42.0904 40.3594 41.6043 40.3594 41.0974C40.3594 40.3371 40.6705 39.6079 41.2243 39.0703C41.7781 38.5326 42.5293 38.2306 43.3125 38.2306C44.0957 38.2306 44.8469 38.5326 45.4007 39.0703C45.9545 39.6079 46.2656 40.3371 46.2656 41.0974C46.2656 41.6043 46.0582 42.0904 45.689 42.4489C45.3198 42.8073 44.819 43.0086 44.2969 43.0086Z" fill="#F3AF3E"/>
<path d="M31.5 34.4081C30.9779 34.4081 30.4771 34.2068 30.1079 33.8484C29.7387 33.4899 29.5312 33.0038 29.5312 32.4969V30.5857H33.4688V32.4969C33.4688 33.0038 33.2613 33.4899 32.8921 33.8484C32.5229 34.2068 32.0221 34.4081 31.5 34.4081Z" fill="#5B3726"/>
<path d="M40.3594 52.2463H22.6406L22.8092 52.0826C24.5912 50.3514 25.5927 48.0044 25.5938 45.557H37.4062C37.4064 48.0046 38.408 50.3519 40.1908 52.0826L40.3594 52.2463Z" fill="#D9D9D9"/>
<path d="M58.3836 46.194H4.61638C4.08823 46.194 3.58172 45.9792 3.20826 45.5969C2.83481 45.2146 2.625 44.696 2.625 44.1554V41.0974H60.375V44.1554C60.375 44.696 60.1652 45.2146 59.7917 45.5969C59.4183 45.9792 58.9118 46.194 58.3836 46.194Z" fill="#E4E4E2"/>
<path d="M22.6406 52.2462H40.3594C40.8815 52.2462 41.3823 52.4476 41.7515 52.806C42.1207 53.1644 42.3281 53.6506 42.3281 54.1574V56.0687H20.6719V54.1574C20.6719 53.6506 20.8793 53.1644 21.2485 52.806C21.6177 52.4476 22.1185 52.2462 22.6406 52.2462V52.2462Z" fill="#E4E4E2"/>
<path d="M37.6127 47.4682H25.3867C25.5243 46.8399 25.5936 46.1993 25.5935 45.557H37.406C37.4059 46.1993 37.4751 46.8399 37.6127 47.4682V47.4682Z" fill="#A8A8A8"/>
<ellipse cx="55.125" cy="10.5179" rx="2.625" ry="2.5483" fill="#62B58F"/>
</svg>
