<svg width="63" height="62" viewBox="0 0 63 62" fill="none" xmlns="http://www.w3.org/2000/svg">
<path d="M48.2344 52.8833V44.2828H54.1406V54.7946C54.1406 55.8083 53.7258 56.7806 52.9874 57.4974C52.2489 58.2143 51.2474 58.617 50.2031 58.617H48.2344V52.8833Z" fill="#F6BB92"/>
<path d="M52.8789 38.5491L53.8269 36.2839L54.6677 34.2749C55.1181 33.1946 55.2393 32.0035 55.0157 30.8535C54.7921 29.7034 54.2339 28.6467 53.4123 27.8179C52.3157 26.7117 51.6997 25.2115 51.6998 23.6472V18.1627H27.0505V23.6476C27.0505 25.2119 26.4345 26.7121 25.3379 27.8184C24.5163 28.647 23.9581 29.7037 23.7344 30.8536C23.5107 32.0035 23.6317 33.1946 24.082 34.2749L24.972 36.4099L52.8789 38.5491Z" fill="#834B10"/>
<path d="M54.1406 39.5839C54.1406 38.2266 53.6447 36.9134 52.741 35.8778C51.8373 34.8422 50.5844 34.1513 49.2053 33.9282L48.2344 33.7711L43.1507 32.9486L39.375 36.638L35.5596 32.9202L28.5469 33.7711V58.617H48.2344V50.9721C49.1248 50.1074 49.687 48.9751 49.8292 47.7602C49.9713 46.5453 49.6851 45.3195 49.0172 44.2829H54.1406V39.5839Z" fill="#5D62B5"/>
<path d="M52.5 23.2594H26.25V16.0642C26.25 12.5657 27.6328 9.21048 30.0942 6.73665C32.5556 4.26283 35.894 2.87305 39.375 2.87305C42.856 2.87305 46.1944 4.26283 48.6558 6.73665C51.1172 9.21048 52.5 12.5657 52.5 16.0642V23.2594Z" fill="#834B10"/>
<path d="M47.25 16.5701V15.6145L46.2656 10.8364H32.4844L31.5 15.6145V16.5701C30.7168 16.5701 29.9656 16.8721 29.4118 17.4098C28.858 17.9474 28.5469 18.6766 28.5469 19.4369C28.5469 20.1973 28.858 23.9959 29.4118 24.5335C29.9656 25.0711 29.6863 24.3771 30.4695 24.3771L30.1875 24.5335H31.5C31.5 26.3076 33.2103 26.7349 34.5026 27.9894C35.7948 29.2439 37.5475 29.9486 39.375 29.9486C41.2025 29.9486 42.9552 29.2439 44.2474 27.9894C45.5397 26.7349 46.2656 26.1512 46.2656 24.3771L47.25 24.5335H48.5625C49.3457 24.5335 48.7844 24.9147 49.3382 24.3771C49.892 23.8394 50.2031 20.1973 50.2031 19.4369C50.2031 18.6766 49.892 17.9474 49.3382 17.4098C48.7844 16.8721 48.0332 16.5701 47.25 16.5701Z" fill="#F6BB92"/>
<path d="M38.3906 40.2872V58.617H16.3652C17.0995 57.5073 17.9542 56.4774 18.9148 55.5447L18.9874 55.4742C20.7474 53.7684 22.1554 51.7517 23.1353 49.5327C23.5216 48.6583 23.9068 47.7839 24.1873 47.1496C24.442 46.5727 24.6094 46.194 24.6094 46.194H21.7768C20.8989 46.1933 20.0464 45.9081 19.3545 45.3835C18.6626 44.859 18.1709 44.1252 17.9575 43.2985L17.4727 41.416L17.3459 40.9238C17.2734 40.6421 17.2679 40.348 17.33 40.0639C17.392 39.7798 17.52 39.5132 17.7041 39.2843C17.8881 39.0553 18.1236 38.8702 18.3924 38.7428C18.6612 38.6154 18.9565 38.5492 19.2556 38.5491H22.6406C23.2753 36.6989 24.5712 35.1303 26.2939 34.1271L26.7246 33.8774C27.8317 33.2328 29.0883 32.8697 30.3783 32.8214C31.6683 32.7732 32.95 33.0415 34.1049 33.6015L34.148 33.623C35.4228 34.2418 36.495 35.193 37.2443 36.3701C37.9937 37.5471 38.3906 38.9035 38.3906 40.2872Z" fill="#4B4B4B"/>
<path d="M38.3906 40.4604V43.172C38.3906 43.7737 38.1956 44.3601 37.8332 44.8482C37.4707 45.3363 36.9593 45.7014 36.3713 45.8916C35.7652 46.0878 35.1098 46.0878 34.5037 45.8916C33.9157 45.7014 33.4043 45.3363 33.0418 44.8482C32.6794 44.3601 32.4844 43.7737 32.4844 43.172V38.5492H36.4219L38.3906 40.4604Z" fill="black"/>
<path d="M29.2431 44.9589L27.2744 46.8701C27.0896 47.0492 26.8391 47.1497 26.5779 47.1496H24.1871C24.4418 46.5727 24.6092 46.194 24.6092 46.194H21.7767C20.818 46.1949 19.8923 45.855 19.1742 45.2384H26.1707L27.8502 43.6067C28.035 43.4274 28.2855 43.3267 28.5467 43.3267C28.8079 43.3267 29.0584 43.4274 29.2431 43.6067C29.4278 43.786 29.5316 44.0292 29.5316 44.2828C29.5316 44.5364 29.4278 44.7796 29.2431 44.9589V44.9589Z" fill="black"/>
<path d="M20.6719 38.5492V39.7042C20.6719 40.1582 20.4861 40.5936 20.1554 40.9146C19.8247 41.2357 19.3762 41.416 18.9085 41.416H17.4727L17.3459 40.9239C17.2734 40.6421 17.2679 40.3481 17.33 40.064C17.392 39.7799 17.52 39.5132 17.7041 39.2843C17.8881 39.0554 18.1236 38.8702 18.3924 38.7428C18.6612 38.6155 18.9565 38.5492 19.2556 38.5492H20.6719Z" fill="black"/>
<path d="M23.7251 56.2565C23.5424 56.2564 23.3633 56.2069 23.2079 56.1135C23.0525 56.0202 22.9269 55.8867 22.8452 55.728C22.7636 55.5693 22.729 55.3916 22.7455 55.2149C22.7619 55.0382 22.8287 54.8695 22.9384 54.7276C24.1124 53.2088 25.0261 51.5159 25.6442 49.7143C25.6841 49.5941 25.7482 49.4828 25.8327 49.3868C25.9172 49.2908 26.0205 49.212 26.1365 49.155C26.2526 49.098 26.3792 49.0638 26.5089 49.0546C26.6386 49.0453 26.769 49.0611 26.8924 49.1011C27.0158 49.141 27.1298 49.2043 27.2279 49.2873C27.3259 49.3702 27.4061 49.4713 27.4637 49.5845C27.5213 49.6977 27.5552 49.8209 27.5634 49.9469C27.5717 50.073 27.5541 50.1993 27.5118 50.3187C26.8269 52.3152 25.8144 54.1912 24.5134 55.8743C24.4217 55.9932 24.3027 56.0896 24.1658 56.156C24.029 56.2223 23.8781 56.2568 23.7251 56.2565V56.2565Z" fill="black"/>
<path d="M31.5 16.5701C32.4254 16.2707 33.2725 15.7791 33.9823 15.1295C34.6921 14.4799 35.2474 13.6879 35.6098 12.8087L36.4219 10.8365L31.5 9.88086V16.5701Z" fill="#834B10"/>
<path d="M36.4219 10.8365L36.5372 11.0043C37.7129 12.7164 39.3059 14.1203 41.1747 15.0912C43.0435 16.0621 45.1304 16.5701 47.25 16.5701V9.88086L36.4219 10.8365Z" fill="#834B10"/>
<path d="M35.3555 20.5519C36.035 20.5519 36.5859 20.0171 36.5859 19.3574C36.5859 18.6976 36.035 18.1628 35.3555 18.1628C34.6759 18.1628 34.125 18.6976 34.125 19.3574C34.125 20.0171 34.6759 20.5519 35.3555 20.5519Z" fill="black"/>
<path d="M40.6055 20.5519C41.285 20.5519 41.8359 20.0171 41.8359 19.3574C41.8359 18.6976 41.285 18.1628 40.6055 18.1628C39.9259 18.1628 39.375 18.6976 39.375 19.3574C39.375 20.0171 39.9259 20.5519 40.6055 20.5519Z" fill="black"/>
<path d="M45.2812 41.4159C45.0202 41.4159 44.7698 41.3152 44.5852 41.136C44.4006 40.9568 44.2969 40.7138 44.2969 40.4603V33.771C44.2969 33.5176 44.4006 33.2745 44.5852 33.0953C44.7698 32.9161 45.0202 32.8154 45.2812 32.8154C45.5423 32.8154 45.7927 32.9161 45.9773 33.0953C46.1619 33.2745 46.2656 33.5176 46.2656 33.771V40.4603C46.2656 40.7138 46.1619 40.9568 45.9773 41.136C45.7927 41.3152 45.5423 41.4159 45.2812 41.4159Z" fill="#C3C3C3"/>
<path d="M45.2812 46.194C46.9122 46.194 48.2344 44.9105 48.2344 43.3272C48.2344 41.7439 46.9122 40.4603 45.2812 40.4603C43.6503 40.4603 42.3281 41.7439 42.3281 43.3272C42.3281 44.9105 43.6503 46.194 45.2812 46.194Z" fill="#E4E4E2"/>
<path d="M45.2812 44.2828C45.8249 44.2828 46.2656 43.855 46.2656 43.3272C46.2656 42.7994 45.8249 42.3716 45.2812 42.3716C44.7376 42.3716 44.2969 42.7994 44.2969 43.3272C44.2969 43.855 44.7376 44.2828 45.2812 44.2828Z" fill="#C3C3C3"/>
<path d="M49.2188 58.6169H34.4531C33.6699 58.6169 32.9188 58.3149 32.365 57.7773C31.8111 57.2396 31.5 56.5104 31.5 55.7501C31.5 54.9898 31.8111 54.2606 32.365 53.7229C32.9188 53.1853 33.6699 52.8833 34.4531 52.8833H35.4375C35.4375 52.3764 35.6449 51.8903 36.0141 51.5318C36.3833 51.1734 36.8841 50.972 37.4062 50.972H37.5752C38.0973 50.9721 38.598 51.1734 38.9672 51.5318L40.3594 52.8833H49.2188V58.6169Z" fill="#F6BB92"/>
<path d="M16.4747 54.1808C16.3292 54.4935 16.255 54.8331 16.2571 55.1762C16.2592 55.5194 16.3376 55.858 16.4869 56.1691C16.6362 56.4801 16.8529 56.7562 17.1222 56.9785C17.3915 57.2007 17.7071 57.3639 18.0473 57.457L21.8365 58.4962C22.5901 58.703 23.3976 58.6106 24.0811 58.2395C24.7647 57.8683 25.2683 57.2488 25.4813 56.5171C25.6943 55.7855 25.5991 55.0017 25.2168 54.3382C24.8345 53.6747 24.1963 53.1858 23.4427 52.979L22.4952 52.7192C22.5656 52.4776 22.5862 52.225 22.556 51.9758C22.5257 51.7265 22.4452 51.4854 22.319 51.2664C22.1928 51.0473 22.0234 50.8546 21.8205 50.6991C21.6175 50.5436 21.385 50.4284 21.1362 50.3601L20.9736 50.3156C20.7248 50.2473 20.4646 50.2273 20.2079 50.2567C19.9511 50.286 19.7028 50.3642 19.4772 50.4867C18.3612 51.0927 17.4749 52.0303 16.9487 53.1616L16.4747 54.1808Z" fill="#F6BB92"/>
<path d="M11.4496 23.2594C12.3914 23.2595 13.2946 23.6807 13.9606 24.4305L15.7498 26.4449L17.5389 24.4305C18.2049 23.6807 19.1081 23.2595 20.0499 23.2594C20.8419 23.2594 21.6113 23.5575 22.2356 24.1063C22.8598 24.6551 23.3033 25.4231 23.4953 26.2882C23.7126 27.2663 23.6558 28.2961 23.3329 29.2365C23.01 30.177 22.4367 30.9819 21.6916 31.5412L15.75 36.0009L9.8084 31.5412C9.06327 30.982 8.48997 30.177 8.16706 29.2366C7.84416 28.2961 7.78745 27.2663 8.0047 26.2882C8.19674 25.4232 8.64009 24.6552 9.26427 24.1064C9.88845 23.5577 10.6576 23.2595 11.4496 23.2594V23.2594Z" fill="#5D62B5"/>
<path d="M31.5 16.5701H32.4844V22.3037H31.5V16.5701Z" fill="#EEB58E"/>
<path d="M46.2656 16.5701H47.25V22.3037H46.2656V16.5701Z" fill="#EEB58E"/>
<path d="M35.5597 32.9201L39.3752 36.6379L43.1508 32.9486C42.921 32.9114 42.7122 32.7962 42.5616 32.6236C42.4109 32.451 42.3283 32.2322 42.3283 32.006V28.993H36.422V31.9719C36.422 32.2048 36.3344 32.4297 36.1756 32.6043C36.0168 32.7789 35.7978 32.8912 35.5597 32.9201V32.9201Z" fill="#F6BB92"/>
<path d="M39.375 30.9042C36.5902 30.9042 33.9195 29.9646 31.9504 28.2919C29.9812 26.6193 28.875 24.3507 28.875 21.9852V20.7111H49.875V21.9852C49.875 24.3507 48.7688 26.6193 46.7996 28.2919C44.8305 29.9646 42.1598 30.9042 39.375 30.9042Z" fill="#5D62B5"/>
<path d="M27.5625 40.4604C28.1062 40.4604 28.5469 40.0326 28.5469 39.5048C28.5469 38.977 28.1062 38.5492 27.5625 38.5492C27.0188 38.5492 26.5781 38.977 26.5781 39.5048C26.5781 40.0326 27.0188 40.4604 27.5625 40.4604Z" fill="black"/>
</svg>
